<?xml version="1.0" encoding="UTF-8"?>
<svg xmlns="http://www.w3.org/2000/svg" version="1.1" viewBox="0 0 18 18">
  <defs>
    <style>
      .cls-1 {
        fill: #e8eaed;
      }
    </style>
  </defs>
  <!-- Generator: Adobe Illustrator 28.7.1, SVG Export Plug-In . SVG Version: 1.2.0 Build 142)  -->
  <g>
    <g id="Layer_1">
      <path class="cls-1" d="M10,5V1c0-.3,0-.5.3-.7s.4-.3.7-.3h6c.3,0,.5,0,.7.3s.3.4.3.7v4c0,.3,0,.5-.3.7s-.4.3-.7.3h-6c-.3,0-.5,0-.7-.3s-.3-.4-.3-.7ZM0,9V1C0,.7,0,.5.3.3c.2-.2.4-.3.7-.3h6c.3,0,.5,0,.7.3s.3.4.3.7v8c0,.3,0,.5-.3.7s-.4.3-.7.3H1c-.3,0-.5,0-.7-.3-.2-.2-.3-.4-.3-.7ZM10,17v-8c0-.3,0-.5.3-.7.2-.2.4-.3.7-.3h6c.3,0,.5,0,.7.3.2.2.3.4.3.7v8c0,.3,0,.5-.3.7-.2.2-.4.3-.7.3h-6c-.3,0-.5,0-.7-.3-.2-.2-.3-.4-.3-.7ZM0,17v-4c0-.3,0-.5.3-.7.2-.2.4-.3.7-.3h6c.3,0,.5,0,.7.3s.3.4.3.7v4c0,.3,0,.5-.3.7-.2.2-.4.3-.7.3H1c-.3,0-.5,0-.7-.3-.2-.2-.3-.4-.3-.7ZM2,8h4V2H2v6ZM12,16h4v-6h-4v6ZM12,4h4v-2h-4v2ZM2,16h4v-2H2v2Z"/>
    </g>
  </g>
</svg>