<?xml version="1.0" encoding="UTF-8"?>
<svg xmlns="http://www.w3.org/2000/svg" version="1.1" viewBox="0 0 24 20.2">
  <defs>
    <style>
      .cls-1 {
        fill: #e8eaed;
      }
    </style>
  </defs>
  <!-- Generator: Adobe Illustrator 28.7.1, SVG Export Plug-In . SVG Version: 1.2.0 Build 142)  -->
  <g>
    <g id="Layer_1">
      <path class="cls-1" d="M1.8,15.1c-.2-.2-.3-.4-.4-.6s0-.5.1-.7l3.8-6.1c.2-.3.4-.4.8-.5s.6,0,.8.3l2.1,2.5,3.2-5.2c.2-.3.5-.5.8-.5s.7.2.9.5l1,1.6c.2.3.2.6.2.8s-.2.5-.4.6-.5.2-.7.2-.5-.2-.7-.5l-.2-.3-3.1,5c-.2.3-.4.4-.8.5s-.6,0-.9-.4l-2.1-2.5-3.1,4.9c-.2.3-.4.4-.7.5s-.6,0-.8-.2ZM16.1,18.2c-1.3,0-2.3-.4-3.2-1.3s-1.3-1.9-1.3-3.2.4-2.3,1.3-3.2,1.9-1.3,3.2-1.3,2.3.4,3.2,1.3,1.3,1.9,1.3,3.2,0,.9-.2,1.3c-.1.4-.3.8-.5,1.1l2.4,2.4c.2.2.3.4.3.7s0,.5-.3.7-.4.3-.7.3-.5-.1-.7-.3l-2.4-2.4c-.3.2-.7.4-1.1.5s-.8.2-1.3.2ZM16.1,16.2c.7,0,1.3-.2,1.8-.7.5-.5.7-1.1.7-1.8s-.2-1.3-.7-1.8-1.1-.7-1.8-.7-1.3.2-1.8.7-.7,1.1-.7,1.8.2,1.3.7,1.8c.5.5,1.1.7,1.8.7ZM17.3,7.9c-.2-.1-.4-.3-.5-.6s0-.5.2-.8L20.8.5c.2-.2.4-.4.7-.5s.5,0,.8.2c.2.2.4.4.4.6s0,.5-.1.7l-3.8,6c-.2.3-.4.4-.7.5s-.5,0-.7-.2Z"/>
    </g>
  </g>
</svg>