<?xml version="1.0" encoding="UTF-8"?>
<svg xmlns="http://www.w3.org/2000/svg" version="1.1" viewBox="0 0 24 22.2">
  <defs>
    <style>
      .cls-1 {
        fill: #e8eaed;
      }
    </style>
  </defs>
  <!-- Generator: Adobe Illustrator 28.7.1, SVG Export Plug-In . SVG Version: 1.2.0 Build 142)  -->
  <g>
    <g id="Layer_1">
      <path class="cls-1" d="M8.8,22.2c-.8,0-1.5-.2-2.1-.6-.6-.4-1.1-1-1.4-1.7-.3.4-.6.6-1,.8-.4.2-.8.3-1.3.3-.9,0-1.6-.3-2.1-.9-.6-.6-.9-1.3-.9-2.1s.2-1.4.7-1.9c.5-.6,1.1-.9,1.8-1-.2-.3-.4-.7-.5-1.1s-.2-.8-.2-1.2,0-.6.1-.9.2-.6.3-.8c.1-.3.3-.4.6-.5s.5,0,.8,0,.4.3.5.6,0,.5,0,.8c0,.1-.1.3-.2.4s0,.3,0,.4c0,.9.3,1.4,1,1.7s1.3.4,2,.6c.1,0,.3,0,.4.2s.2.2.3.3.1.2.1.4,0,.3,0,.4c-.2.5-.3.8-.4,1.2-.1.3-.2.6-.2.9,0,.5.2.9.5,1.3s.8.6,1.3.6,1-.2,1.4-.6.7-.9,1-1.5.5-1.3.6-1.9.3-1.3.4-1.9c0-.3.2-.5.4-.7s.5-.2.8-.1c.3,0,.5.3.6.5s.2.5.1.8c-.2.8-.3,1.6-.6,2.5-.2.9-.5,1.7-.9,2.4-.4.7-.9,1.3-1.5,1.8s-1.4.7-2.3.7ZM15.3,22.2c-.3,0-.5,0-.7-.3s-.3-.4-.3-.7,0-.5.3-.7c.2-.2.4-.3.7-.3.5,0,1-.2,1.3-.6s.5-.8.5-1.3,0-.6-.2-.9c-.1-.3-.3-.8-.4-1.2,0-.1,0-.2,0-.3s0-.2.1-.3.1-.2.2-.2.2-.1.3-.1c.7-.1,1.4-.3,2.1-.5s1.1-.8,1.1-1.7-.2-1.2-.7-1.5-1-.5-1.6-.5-1.3.1-2,.3-1.6.5-2.6.8c-.3,0-.6,0-.8,0s-.4-.3-.5-.6,0-.6.1-.8.4-.4.7-.5c1.1-.3,2-.6,2.9-.8s1.6-.3,2.4-.3c1.2,0,2.2.3,3,1s1.3,1.6,1.3,2.9,0,.8-.2,1.2-.3.7-.5,1.1c.7,0,1.3.4,1.8,1s.7,1.2.7,1.9-.3,1.5-.9,2.1c-.6.6-1.3.9-2.1.9s-.9,0-1.3-.3c-.4-.2-.7-.5-1-.8-.3.7-.8,1.2-1.4,1.6s-1.3.6-2.1.6ZM9.2,14.3c-1.3-1.2-2.3-2.2-3.1-3.2-.8-1-1.2-2-1.2-3.1s.4-2,1.1-2.7c.7-.7,1.7-1.1,2.7-1.1s.1,0,.2,0,.1,0,.2,0c0-.2-.1-.3-.2-.5s0-.3,0-.5c0-.8.3-1.5.9-2.1s1.3-.9,2.1-.9,1.5.3,2.1.9.9,1.3.9,2.1,0,.4,0,.5,0,.3-.2.5h.4c.4,0,.8,0,1.2.2s.8.3,1.1.6c.2.2.4.4.4.7s0,.5-.2.8-.4.4-.7.4-.5,0-.8-.2c-.2-.1-.3-.2-.5-.3s-.4,0-.6,0c-.5,0-1,.2-1.3.5s-.7.7-1.2,1.3c0,.1-.2.2-.3.2s-.2,0-.4,0-.3,0-.4,0-.2-.1-.3-.2c-.5-.6-.9-1-1.2-1.3s-.7-.4-1.3-.4-1,.2-1.3.5-.5.8-.5,1.3.3,1.4,1,2.2c.7.8,1.5,1.6,2.7,2.7.2.2.4.4.4.7s0,.5-.2.7-.5.3-.8.3-.6-.1-.8-.4ZM3,19.1c.3,0,.5,0,.7-.3s.3-.4.3-.7,0-.5-.3-.7c-.2-.2-.4-.3-.7-.3s-.5,0-.7.3c-.2.2-.3.4-.3.7s0,.5.3.7.4.3.7.3ZM12,4.2c.3,0,.5,0,.7-.3.2-.2.3-.4.3-.7s0-.5-.3-.7c-.2-.2-.4-.3-.7-.3s-.5,0-.7.3-.3.4-.3.7,0,.5.3.7.4.3.7.3ZM21,19.1c.3,0,.5,0,.7-.3s.3-.4.3-.7,0-.5-.3-.7-.4-.3-.7-.3-.5,0-.7.3c-.2.2-.3.4-.3.7s.1.5.3.7.4.3.7.3Z"/>
    </g>
  </g>
</svg>