<?xml version="1.0" encoding="UTF-8"?>
<svg id="OBJECTS" xmlns="http://www.w3.org/2000/svg" viewBox="0 0 116.63 115.64">
  <defs>
    <style>
      .cls-1 {
        fill: #fff;
      }

      .cls-2 {
        fill: #008668;
      }

      .cls-3 {
        fill: #0e333d;
      }
    </style>
  </defs>
  <path class="cls-1" d="M11.78,60.79c-.75-1.35-1.45-2.69-2.12-4.05-10.15,20.04-10.83,39.85.13,50.82l2.65-2.66c-9.43-9.43-9.03-26.41-.66-44.11Z"/>
  <path class="cls-2" d="M80.89,54.97c-.9,0-1.65-.63-1.83-1.48-1.22-1.03-8.24-2.86-20.29-2.86s-19.07,1.84-20.29,2.86c-.18.85-.93,1.48-1.83,1.48-1.04,0-1.88-.84-1.88-1.88,0-5.77,18.37-6.22,24-6.22s24,.45,24,6.22c0,1.04-.84,1.88-1.88,1.88Z"/>
  <g>
    <path class="cls-2" d="M59.34,9.19c-3.25-1.59-6.5-2.94-9.73-4.03l-1.2,3.56c2.24.75,4.5,1.65,6.77,2.66,1.38-.78,2.77-1.5,4.16-2.2Z"/>
    <path class="cls-2" d="M62.35,15.02c.83.47,1.66.95,2.49,1.45l1.95-3.21c-.09-.06-.19-.11-.28-.16-1.39.59-2.77,1.24-4.15,1.92Z"/>
  </g>
  <path class="cls-2" d="M99.63,50.5c-4.08-6.38-9.02-12.47-14.66-18.12-6.25-6.25-13.02-11.61-20.13-15.91l1.95-3.21c7.36,4.46,14.38,10.01,20.84,16.47,5.83,5.83,10.94,12.14,15.17,18.75l-3.16,2.02Z"/>
  <g>
    <path class="cls-2" d="M49.72,103.88c1.39-.56,2.79-1.17,4.18-1.83-7.43-4.32-14.84-9.98-21.73-16.87-12.44-12.44-21.3-26.94-24.94-40.82-3.55-13.53-1.7-24.79,5.22-31.7,7.63-7.63,20.74-9.07,35.97-3.94l1.2-3.56C32.98-.43,18.47,1.33,9.79,10.01,1.9,17.91-.3,30.44,3.6,45.32c3.81,14.52,13.01,29.62,25.92,42.52,6.4,6.4,13.26,11.77,20.21,16.04Z"/>
    <path class="cls-2" d="M113.01,70.33l-3.6,1.06c4.16,14.14,2.45,26.35-4.71,33.51-9.35,9.35-26.1,9.03-43.63.89-1.37.74-2.75,1.44-4.13,2.09,10.01,5.01,19.96,7.66,28.76,7.66,8.68,0,16.25-2.57,21.66-7.98,8.16-8.16,10.23-21.73,5.66-37.23Z"/>
  </g>
  <g>
    <path class="cls-1" d="M109.91,44.36c-1.01,3.85-2.44,7.75-4.22,11.64.76,1.39,1.48,2.79,2.16,4.19,2.47-4.96,4.4-9.95,5.69-14.88,3.9-14.87,1.7-27.41-6.2-35.31l-2.65,2.65c6.92,6.92,8.77,18.17,5.22,31.7Z"/>
    <path class="cls-1" d="M102,63.18c-4.41,7.66-10.17,15.14-17.03,22-12.44,12.44-26.94,21.3-40.82,24.94-13.53,3.55-24.78,1.7-31.7-5.22l-2.65,2.66c5.35,5.34,12.82,8.08,21.7,8.08,4.24,0,8.8-.62,13.61-1.88,14.52-3.81,29.62-13.01,42.52-25.92,6.39-6.39,11.86-13.31,16.23-20.44-.57-1.41-1.19-2.82-1.86-4.22Z"/>
  </g>
  <path class="cls-1" d="M15.51,53.76c4.29-7.31,9.88-14.6,16.66-21.38,12.44-12.44,26.94-21.3,40.82-24.94,13.53-3.55,24.78-1.7,31.7,5.22l2.65-2.65C99.45,2.11,86.91-.09,72.04,3.81c-14.52,3.81-29.62,13.01-42.52,25.92-6.32,6.32-11.63,13.09-15.87,19.95.58,1.36,1.2,2.72,1.87,4.09Z"/>
  <path class="cls-2" d="M109.41,71.39c-2.03-6.9-5.32-13.93-9.78-20.89l3.16-2.02c4.65,7.26,8.09,14.61,10.22,21.86l-3.6,1.06Z"/>
  <path class="cls-3" d="M22.42,7.72c0,4.26-3.46,7.72-7.72,7.72s-7.72-3.46-7.72-7.72S10.43,0,14.7,0s7.72,3.46,7.72,7.72Z"/>
  <path class="cls-3" d="M113.74,106.62c0,4.26-3.46,7.72-7.72,7.72s-7.72-3.46-7.72-7.72,3.46-7.72,7.72-7.72,7.72,3.46,7.72,7.72Z"/>
  <polygon class="cls-1" points="21.57 19.38 22.42 17.83 23.26 19.38 24.81 20.22 23.26 21.07 22.42 22.62 21.57 21.07 20.03 20.22 21.57 19.38"/>
  <polygon class="cls-1" points="20.18 97.12 21.88 94.03 23.57 97.12 26.66 98.82 23.57 100.51 21.88 103.6 20.18 100.51 17.09 98.82 20.18 97.12"/>
  <polygon class="cls-1" points="94.73 18.53 96.43 15.44 98.12 18.53 101.21 20.22 98.12 21.92 96.43 25.01 94.73 21.92 91.64 20.22 94.73 18.53"/>
  <polygon class="cls-1" points="93.19 93.18 94.03 91.64 94.88 93.18 96.42 94.03 94.88 94.88 94.03 96.42 93.19 94.88 91.64 94.03 93.19 93.18"/>
  <polygon class="cls-1" points="57.68 24.17 58.53 22.62 59.37 24.17 60.92 25.01 59.37 25.86 58.53 27.4 57.68 25.86 56.14 25.01 57.68 24.17"/>
  <polygon class="cls-1" points="90.79 59.33 91.64 57.78 92.48 59.33 94.03 60.18 92.48 61.02 91.64 62.57 90.79 61.02 89.25 60.18 90.79 59.33"/>
  <polygon class="cls-1" points="25.82 59.33 26.66 57.78 27.51 59.33 29.05 60.18 27.51 61.02 26.66 62.57 25.82 61.02 24.27 60.18 25.82 59.33"/>
  <g>
    <path class="cls-3" d="M58.76,57.44c7.94,0,13.68-.8,17.03-1.64v-5.53c0-1.55-1.07-3.49-2.38-4.32l-12.36-7.83c-1.31-.83-3.45-.83-4.76,0l-12.36,7.82c-1.31.83-2.38,2.77-2.38,4.32v5.48c3.32.85,9.13,1.68,17.21,1.68Z"/>
    <path class="cls-3" d="M58.76,61.19c-3.39,0-11.38-.16-17.21-1.55v13.8c0,1.55,1.27,2.82,2.82,2.82h5.73c1.55,0,2.82-1.27,2.82-2.82v-6.89c0-1.55,1.27-2.82,2.82-2.82h5.89c1.55,0,2.82,1.27,2.82,2.82v6.89c0,1.55,1.27,2.82,2.82,2.82h5.73c1.55,0,2.82-1.27,2.82-2.82v-13.76c-5.82,1.35-13.68,1.5-17.03,1.5Z"/>
  </g>
  <path class="cls-2" d="M58.76,59.32c-5.63,0-24-.45-24-6.22,0-1.04.84-1.88,1.88-1.88.9,0,1.65.63,1.83,1.48,1.22,1.02,8.24,2.86,20.29,2.86s19.07-1.84,20.29-2.86c.18-.85.93-1.48,1.83-1.48,1.04,0,1.88.84,1.88,1.88,0,5.77-18.37,6.22-24,6.22Z"/>
</svg>